Title: Rosa Morena

Country: Denmark, 2010

Language: Danish and Portuguese

Subtitle: Portuguese and English

Plot: Thomas, a Danish gay man, is unable to adopt in his home country. He visits a friend in Brazil to explore the possibility of bringing home a child. Eventually he meets Maria, a poor woman who is willing to give away the child she is carrying in exchange for money. As he waits for the child, Thomas takes care of Maria, and their relationship develops in a way he did not expect. 

Director: Carlos Augusto de Oliveira

Writers: Jens Dahl, Morten Kirkskov (idea)

Stars: Anders W. Berthelsen, Bárbara Garcia and David Dencik 

Imdb:  
http://www.imdb.com/title/tt1252516/?ref_=fn_al_tt_1

Rip Specs:

General
Complete name                    : Rosa.Morena.2010.DVDRip.XviD.AC3.HORiZON-ArtSubs
Format                           : AVI
Format/Info                      : Audio Video Interleave
File size                        : 1.08 GiB
Duration                         : 1h 29mn
Overall bit rate                 : 1 725 Kbps
Writing application              : FairUse Wizard - http://fairusewizard.com
Writing library                  : The best and REALLY easy backup tool

Video
ID                               : 0
Format                           : MPEG-4 Visual
Format profile                   : Advanced Simple@L5
Format settings, BVOP            : 1
Format settings, QPel            : No
Format settings, GMC             : No warppoints
Format settings, Matrix          : Default (H.263)
Muxing mode                      : Packed bitstream
Codec ID                         : XVID
Codec ID/Hint                    : XviD
Duration                         : 1h 29mn
Bit rate                         : 1 524 Kbps
Width                            : 688 pixels
Height                           : 288 pixels
Display aspect ratio             : 2.40:1
Frame rate                       : 23.976 fps
Color space                      : YUV
Chroma subsampling               : 4:2:0
Bit depth                        : 8 bits
Scan type                        : Progressive
Compression mode                 : Lossy
Bits/(Pixel*Frame)               : 0.321
Stream size                      : 974 MiB (88%)
Writing library                  : XviD 1.1.0 (UTC 2005-11-22)

Audio
ID                               : 1
Format                           : AC-3
Format/Info                      : Audio Coding 3
Mode extension                   : CM (complete main)
Codec ID                         : 2000
Duration                         : 1h 29mn
Bit rate mode                    : Constant
Bit rate                         : 192 Kbps
Channel(s)                       : 2 channels
Channel positions                : Front: L R
Sampling rate                    : 48.0 KHz
Bit depth                        : 16 bits
Compression mode                 : Lossy
Stream size                      : 123 MiB (11%)
Alignment                        : Split accross interleaves
Interleave, duration             : 42 ms (1.00 video frame)
Interleave, preload duration     : 500 ms
